# WaveFront *.obj file (generated by Autodesk ATF)

mtllib J3.mtl

g Body3

v 0.150000 -0.250000 0.249998
v -0.150000 -0.250000 0.249998
v -0.150000 -0.250000 -0.250002
v 0.150000 -0.250000 -0.250002
v -0.150000 0.000000 -0.250002
v 0.150000 0.000000 -0.250002
v -0.150000 -0.000075 0.249998
v -0.150000 0.055562 0.243746
v -0.150000 0.108413 0.225268
v -0.150000 0.155826 0.195493
v -0.150000 0.195424 0.155912
v -0.150000 0.225221 0.108512
v -0.150000 0.243722 0.055670
v -0.150000 0.250000 0.000036
v -0.150000 0.243739 -0.055601
v -0.150000 0.225254 -0.108449
v -0.150000 0.195471 -0.155858
v -0.150000 0.155885 -0.195450
v -0.150000 0.108481 -0.225240
v -0.150000 0.055635 -0.243733
v 0.150000 -0.000075 0.249998
v 0.150000 0.055562 0.243746
v 0.150000 0.108413 0.225268
v 0.150000 0.155826 0.195493
v 0.150000 0.195424 0.155912
v 0.150000 0.225221 0.108512
v 0.150000 0.243722 0.055670
v 0.150000 0.250000 0.000036
v 0.150000 0.243739 -0.055601
v 0.150000 0.225254 -0.108449
v 0.150000 0.195471 -0.155858
v 0.150000 0.155885 -0.195450
v 0.150000 0.108481 -0.225240
v 0.150000 0.055635 -0.243733
vt -0.025000 -0.015000 0.000000
vt 0.025000 -0.015000 0.000000
vt -0.025000 0.015000 0.000000
vt 0.025000 0.015000 0.000000
vt 0.025000 0.000000 0.000000
vt 0.050000 0.000000 0.000000
vt 0.025000 0.030000 0.000000
vt 0.050000 0.030000 0.000000
vt 0.006048 0.071500 0.000000
vt -0.018944 0.071500 0.000000
vt 0.006048 0.021500 0.000000
vt -0.018952 0.021500 0.000000
vt -0.024515 0.022127 0.000000
vt -0.029800 0.023976 0.000000
vt -0.034540 0.026955 0.000000
vt -0.024508 0.070875 0.000000
vt -0.029793 0.069027 0.000000
vt -0.034534 0.066049 0.000000
vt -0.038494 0.062091 0.000000
vt -0.041474 0.057351 0.000000
vt -0.043324 0.052067 0.000000
vt -0.043952 0.046504 0.000000
vt -0.043326 0.040940 0.000000
vt -0.041477 0.035655 0.000000
vt -0.038499 0.030914 0.000000
vt -0.030000 0.000000 0.000000
vt -0.000000 0.000000 0.000000
vt -0.030000 0.005611 0.000000
vt -0.000000 0.005611 0.000000
vt -0.030000 0.011221 0.000000
vt -0.000000 0.011221 0.000000
vt -0.030000 0.016832 0.000000
vt -0.000000 0.016832 0.000000
vt -0.030000 0.022442 0.000000
vt -0.000000 0.022442 0.000000
vt -0.030000 0.028053 0.000000
vt -0.000000 0.028053 0.000000
vt -0.030000 0.033663 0.000000
vt -0.000000 0.033663 0.000000
vt -0.030000 0.039274 0.000000
vt -0.000000 0.039274 0.000000
vt -0.030000 0.044884 0.000000
vt -0.000000 0.044884 0.000000
vt -0.030000 0.050495 0.000000
vt -0.000000 0.050495 0.000000
vt -0.030000 0.056105 0.000000
vt -0.000000 0.056105 0.000000
vt -0.030000 0.061716 0.000000
vt -0.000000 0.061716 0.000000
vt -0.030000 0.067326 0.000000
vt -0.000000 0.067326 0.000000
vt -0.030000 0.072937 0.000000
vt -0.000000 0.072937 0.000000
vt -0.030000 0.078547 0.000000
vt -0.000000 0.078547 0.000000
vt 0.024993 0.030000 0.000000
vt -0.000000 0.030000 0.000000
vt 0.024993 0.000000 0.000000
vt -0.000000 0.000000 0.000000
vt -0.006048 0.071500 0.000000
vt -0.006048 0.021500 0.000000
vt 0.018944 0.071500 0.000000
vt 0.018952 0.021500 0.000000
vt 0.024515 0.022127 0.000000
vt 0.029800 0.023976 0.000000
vt 0.034540 0.026955 0.000000
vt 0.024508 0.070875 0.000000
vt 0.029793 0.069027 0.000000
vt 0.034534 0.066049 0.000000
vt 0.038494 0.062091 0.000000
vt 0.041474 0.057351 0.000000
vt 0.043324 0.052067 0.000000
vt 0.043952 0.046504 0.000000
vt 0.043326 0.040940 0.000000
vt 0.041477 0.035655 0.000000
vt 0.038499 0.030914 0.000000
vn 0.000000 -0.100000 0.000000
vn 0.000000 -0.100000 0.000000
vn 0.000000 -0.100000 0.000000
vn 0.000000 -0.100000 0.000000
vn 0.000000 0.000000 -0.100000
vn 0.000000 0.000000 -0.100000
vn 0.000000 0.000000 -0.100000
vn 0.000000 0.000000 -0.100000
vn -0.100000 0.000000 0.000000
vn -0.100000 0.000000 0.000000
vn -0.100000 0.000000 0.000000
vn -0.100000 0.000000 0.000000
vn -0.100000 0.000000 0.000000
vn -0.100000 0.000000 0.000000
vn -0.100000 0.000000 0.000000
vn -0.100000 0.000000 0.000000
vn -0.100000 0.000000 0.000000
vn -0.100000 0.000000 0.000000
vn -0.100000 0.000000 0.000000
vn -0.100000 0.000000 0.000000
vn -0.100000 0.000000 0.000000
vn -0.100000 0.000000 0.000000
vn -0.100000 0.000000 0.000000
vn -0.100000 0.000000 0.000000
vn -0.100000 0.000000 0.000000
vn -0.000000 0.022254 -0.097492
vn -0.000000 0.022254 -0.097492
vn -0.000000 0.043392 -0.090095
vn -0.000000 0.043392 -0.090095
vn -0.000000 0.062354 -0.078179
vn -0.000000 0.062354 -0.078179
vn -0.000000 0.078188 -0.062342
vn -0.000000 0.078188 -0.062342
vn -0.000000 0.090102 -0.043379
vn -0.000000 0.090102 -0.043379
vn -0.000000 0.097496 -0.022240
vn -0.000000 0.097496 -0.022240
vn 0.000000 0.100000 0.000015
vn 0.000000 0.100000 0.000015
vn 0.000000 0.097489 0.022269
vn 0.000000 0.097489 0.022269
vn 0.000000 0.090089 0.043406
vn 0.000000 0.090089 0.043406
vn 0.000000 0.078170 0.062366
vn 0.000000 0.078170 0.062366
vn 0.000000 0.062331 0.078198
vn 0.000000 0.062331 0.078198
vn 0.000000 0.043365 0.090108
vn 0.000000 0.043365 0.090108
vn 0.000000 0.022225 0.097499
vn 0.000000 0.022225 0.097499
vn 0.000000 -0.000030 0.100000
vn 0.000000 -0.000030 0.100000
vn 0.000000 0.000000 0.100000
vn 0.000000 0.000000 0.100000
vn 0.000000 0.000000 0.100000
vn 0.000000 0.000000 0.100000
vn 0.100000 0.000000 0.000000
vn 0.100000 0.000000 0.000000
vn 0.100000 0.000000 0.000000
vn 0.100000 0.000000 0.000000
vn 0.100000 0.000000 0.000000
vn 0.100000 0.000000 0.000000
vn 0.100000 0.000000 0.000000
vn 0.100000 0.000000 0.000000
vn 0.100000 0.000000 0.000000
vn 0.100000 0.000000 0.000000
vn 0.100000 0.000000 0.000000
vn 0.100000 0.000000 0.000000
vn 0.100000 0.000000 0.000000
vn 0.100000 0.000000 0.000000
vn 0.100000 0.000000 0.000000
vn 0.100000 0.000000 0.000000
vn 0.100000 0.000000 0.000000
usemtl Steel_-_Satin
f 2/1/1 3/2/2 1/3/3
f 1/3/3 3/2/2 4/4/4
f 3/5/5 5/6/6 4/7/7
f 4/7/7 5/6/6 6/8/8
f 2/9/9 7/10/10 3/11/11
f 3/11/11 7/10/10 5/12/12
f 5/12/12 7/10/10 20/13/13
f 20/13/13 7/10/10 19/14/14
f 19/14/14 7/10/10 18/15/15
f 18/15/15 7/10/10 8/16/16
f 18/15/15 8/16/16 9/17/17
f 9/17/17 10/18/18 18/15/15
f 18/15/15 10/18/18 11/19/19
f 18/15/15 11/19/19 12/20/20
f 12/20/20 13/21/21 18/15/15
f 18/15/15 13/21/21 14/22/22
f 18/15/15 14/22/22 15/23/23
f 15/23/23 16/24/24 18/15/15
f 18/15/15 16/24/24 17/25/25
f 6/26/8 5/27/6 34/28/26
f 34/28/26 5/27/6 20/29/27
f 34/28/26 20/29/27 33/30/28
f 33/30/28 20/29/27 19/31/29
f 33/30/28 19/31/29 32/32/30
f 32/32/30 19/31/29 18/33/31
f 32/32/30 18/33/31 31/34/32
f 31/34/32 18/33/31 17/35/33
f 31/34/32 17/35/33 30/36/34
f 30/36/34 17/35/33 16/37/35
f 30/36/34 16/37/35 29/38/36
f 29/38/36 16/37/35 15/39/37
f 29/38/36 15/39/37 28/40/38
f 28/40/38 15/39/37 14/41/39
f 28/40/38 14/41/39 27/42/40
f 27/42/40 14/41/39 13/43/41
f 27/42/40 13/43/41 26/44/42
f 26/44/42 13/43/41 12/45/43
f 26/44/42 12/45/43 25/46/44
f 25/46/44 12/45/43 11/47/45
f 25/46/44 11/47/45 24/48/46
f 24/48/46 11/47/45 10/49/47
f 24/48/46 10/49/47 23/50/48
f 23/50/48 10/49/47 9/51/49
f 23/50/48 9/51/49 22/52/50
f 22/52/50 9/51/49 8/53/51
f 22/52/50 8/53/51 21/54/52
f 21/54/52 8/53/51 7/55/53
f 1/56/54 21/57/55 2/58/56
f 2/58/56 21/57/55 7/59/57
f 1/60/58 4/61/59 21/62/60
f 21/62/60 4/61/59 6/63/61
f 21/62/60 6/63/61 34/64/62
f 34/64/62 33/65/63 21/62/60
f 21/62/60 33/65/63 32/66/64
f 21/62/60 32/66/64 22/67/65
f 22/67/65 32/66/64 23/68/66
f 23/68/66 32/66/64 24/69/67
f 24/69/67 32/66/64 25/70/68
f 25/70/68 32/66/64 26/71/69
f 26/71/69 32/66/64 27/72/70
f 27/72/70 32/66/64 28/73/71
f 28/73/71 32/66/64 29/74/72
f 29/74/72 32/66/64 30/75/73
f 30/75/73 32/66/64 31/76/74
# 34 vertices
# 76 texture params
# 74 normals
# 64 facets

# 1 groups
