# WaveFront *.obj file (generated by Autodesk ATF)

mtllib J4.mtl

g Body1

v -0.150000 -0.250000 0.249998
v -0.150000 -0.250000 -0.250002
v -0.150000 -0.500000 -0.250002
v -0.150000 -0.544963 -0.211752
v -0.150000 -0.581565 -0.165439
v -0.150000 -0.608390 -0.112855
v -0.150000 -0.624398 -0.056036
v -0.150000 -0.628971 0.002817
v -0.150000 -0.621931 0.061427
v -0.150000 -0.603550 0.117524
v -0.150000 -0.574541 0.168935
v -0.150000 -0.536026 0.213670
v -0.150000 -0.489497 0.249998
v 0.150000 -0.500000 -0.250002
v 0.150000 -0.544963 -0.211752
v 0.150000 -0.581565 -0.165439
v 0.150000 -0.608390 -0.112855
v 0.150000 -0.624398 -0.056036
v 0.150000 -0.628971 0.002817
v 0.150000 -0.621931 0.061427
v 0.150000 -0.603550 0.117524
v 0.150000 -0.574541 0.168935
v 0.150000 -0.536026 0.213670
v 0.150000 -0.489497 0.249998
v 0.150000 -0.250000 -0.250002
v 0.150000 -0.250000 0.249998
vt 0.006048 0.071500 0.000000
vt 0.006048 0.021500 0.000000
vt 0.029998 0.071500 0.000000
vt 0.034651 0.067867 0.000000
vt 0.038502 0.063394 0.000000
vt 0.041403 0.058252 0.000000
vt 0.043241 0.052643 0.000000
vt 0.043945 0.046782 0.000000
vt 0.043488 0.040896 0.000000
vt 0.041887 0.035215 0.000000
vt 0.039205 0.029956 0.000000
vt 0.035544 0.025325 0.000000
vt 0.031048 0.021500 0.000000
vt -0.030000 0.000000 0.000000
vt -0.000000 0.000000 0.000000
vt -0.030000 0.005913 0.000000
vt -0.000000 0.005913 0.000000
vt -0.030000 0.011825 0.000000
vt -0.000000 0.011825 0.000000
vt -0.030000 0.017738 0.000000
vt -0.000000 0.017738 0.000000
vt -0.030000 0.023651 0.000000
vt -0.000000 0.023651 0.000000
vt -0.030000 0.029563 0.000000
vt -0.000000 0.029563 0.000000
vt -0.030000 0.035476 0.000000
vt -0.000000 0.035476 0.000000
vt -0.030000 0.041389 0.000000
vt -0.000000 0.041389 0.000000
vt -0.030000 0.047301 0.000000
vt -0.000000 0.047301 0.000000
vt -0.030000 0.053214 0.000000
vt -0.000000 0.053214 0.000000
vt -0.030000 0.059127 0.000000
vt -0.000000 0.059127 0.000000
vt 0.025000 0.030000 0.000000
vt 0.000000 0.030000 0.000000
vt 0.025000 0.000000 0.000000
vt 0.000000 0.000000 0.000000
vt 0.024993 0.000000 0.000000
vt 0.048942 0.000000 0.000000
vt 0.024993 0.030000 0.000000
vt 0.048942 0.030000 0.000000
vt -0.006048 0.071500 0.000000
vt -0.029998 0.071500 0.000000
vt -0.006048 0.021500 0.000000
vt -0.034651 0.067867 0.000000
vt -0.038502 0.063394 0.000000
vt -0.041403 0.058252 0.000000
vt -0.043241 0.052643 0.000000
vt -0.043945 0.046782 0.000000
vt -0.043488 0.040896 0.000000
vt -0.041887 0.035215 0.000000
vt -0.039205 0.029956 0.000000
vt -0.035544 0.025325 0.000000
vt -0.031048 0.021500 0.000000
vt 0.025000 0.015000 0.000000
vt -0.025000 0.015000 0.000000
vt 0.025000 -0.015000 0.000000
vt -0.025000 -0.015000 0.000000
vn -0.100000 0.000000 0.000000
vn -0.100000 0.000000 0.000000
vn -0.100000 0.000000 0.000000
vn -0.100000 0.000000 0.000000
vn -0.100000 0.000000 0.000000
vn -0.100000 0.000000 0.000000
vn -0.100000 0.000000 0.000000
vn -0.100000 0.000000 0.000000
vn -0.100000 0.000000 0.000000
vn -0.100000 0.000000 0.000000
vn -0.100000 0.000000 0.000000
vn -0.100000 0.000000 0.000000
vn -0.100000 0.000000 0.000000
vn 0.000000 -0.053487 0.084494
vn 0.000000 -0.053487 0.084494
vn 0.000000 -0.068996 0.072384
vn 0.000000 -0.068996 0.072384
vn 0.000000 -0.081835 0.057473
vn 0.000000 -0.081835 0.057473
vn 0.000000 -0.091504 0.040335
vn 0.000000 -0.091504 0.040335
vn 0.000000 -0.097631 0.021637
vn 0.000000 -0.097631 0.021637
vn 0.000000 -0.099978 0.002100
vn 0.000000 -0.099978 0.002100
vn 0.000000 -0.098454 -0.017518
vn 0.000000 -0.098454 -0.017518
vn 0.000000 -0.093117 -0.036457
vn 0.000000 -0.093117 -0.036457
vn 0.000000 -0.084176 -0.053985
vn 0.000000 -0.084176 -0.053985
vn 0.000000 -0.071975 -0.069423
vn 0.000000 -0.071975 -0.069423
vn 0.000000 -0.056988 -0.082173
vn 0.000000 -0.056988 -0.082173
vn 0.000000 0.000000 -0.100000
vn 0.000000 0.000000 -0.100000
vn 0.000000 0.000000 -0.100000
vn 0.000000 0.000000 -0.100000
vn 0.000000 0.000000 0.100000
vn 0.000000 0.000000 0.100000
vn 0.000000 0.000000 0.100000
vn 0.000000 0.000000 0.100000
vn 0.100000 0.000000 0.000000
vn 0.100000 0.000000 0.000000
vn 0.100000 0.000000 0.000000
vn 0.100000 0.000000 0.000000
vn 0.100000 0.000000 0.000000
vn 0.100000 0.000000 0.000000
vn 0.100000 0.000000 0.000000
vn 0.100000 0.000000 0.000000
vn 0.100000 0.000000 0.000000
vn 0.100000 0.000000 0.000000
vn 0.100000 0.000000 0.000000
vn 0.100000 0.000000 0.000000
vn 0.100000 0.000000 0.000000
vn 0.000000 0.100000 0.000000
vn 0.000000 0.100000 0.000000
vn 0.000000 0.100000 0.000000
vn 0.000000 0.100000 0.000000
usemtl Steel_-_Satin
f 1/1/1 2/2/2 13/3/3
f 13/3/3 2/2/2 12/4/4
f 12/4/4 2/2/2 11/5/5
f 11/5/5 2/2/2 10/6/6
f 10/6/6 2/2/2 9/7/7
f 9/7/7 2/2/2 8/8/8
f 8/8/8 2/2/2 7/9/9
f 7/9/9 2/2/2 6/10/10
f 6/10/10 2/2/2 5/11/11
f 5/11/11 2/2/2 4/12/12
f 4/12/12 2/2/2 3/13/13
f 24/14/14 13/15/15 23/16/16
f 23/16/16 13/15/15 12/17/17
f 23/16/16 12/17/17 22/18/18
f 22/18/18 12/17/17 11/19/19
f 22/18/18 11/19/19 21/20/20
f 21/20/20 11/19/19 10/21/21
f 21/20/20 10/21/21 20/22/22
f 20/22/22 10/21/21 9/23/23
f 20/22/22 9/23/23 19/24/24
f 19/24/24 9/23/23 8/25/25
f 19/24/24 8/25/25 18/26/26
f 18/26/26 8/25/25 7/27/27
f 18/26/26 7/27/27 17/28/28
f 17/28/28 7/27/27 6/29/29
f 17/28/28 6/29/29 16/30/30
f 16/30/30 6/29/29 5/31/31
f 16/30/30 5/31/31 15/32/32
f 15/32/32 5/31/31 4/33/33
f 15/32/32 4/33/33 14/34/34
f 14/34/34 4/33/33 3/35/35
f 25/36/36 14/37/37 2/38/38
f 2/38/38 14/37/37 3/39/39
f 1/40/40 13/41/41 26/42/42
f 26/42/42 13/41/41 24/43/43
f 26/44/44 24/45/45 25/46/46
f 25/46/46 24/45/45 23/47/47
f 25/46/46 23/47/47 22/48/48
f 22/48/48 21/49/49 25/46/46
f 25/46/46 21/49/49 20/50/50
f 25/46/46 20/50/50 19/51/51
f 19/51/51 18/52/52 25/46/46
f 25/46/46 18/52/52 17/53/53
f 25/46/46 17/53/53 16/54/54
f 16/54/54 15/55/55 25/46/46
f 25/46/46 15/55/55 14/56/56
f 26/57/57 25/58/58 1/59/59
f 1/59/59 25/58/58 2/60/60
# 26 vertices
# 60 texture params
# 60 normals
# 48 facets

# 1 groups
