# WaveFront *.obj file (generated by Autodesk ATF)

mtllib J5.mtl

g Body1

v 1.124999 0.000000 1.400095
v 1.154029 0.000000 1.463389
v 1.171797 0.000000 1.530717
v 1.177779 0.000000 1.600093
v 1.171797 0.000000 1.669469
v 1.154029 0.000000 1.736797
v 1.124999 0.000000 1.800090
v 1.124999 0.300000 1.800090
v 1.154029 0.300000 1.736797
v 1.171797 0.300000 1.669469
v 1.177779 0.300000 1.600093
v 1.171797 0.300000 1.530717
v 1.154029 0.300000 1.463389
v 1.124999 0.300000 1.400095
v 1.248972 0.300000 1.800090
v 1.248972 0.300000 1.400095
v 1.001026 0.000000 1.800090
v 1.001026 -0.300000 1.800090
v 1.248972 -0.300000 1.800090
v 1.248972 -0.300000 1.400095
v 1.001026 0.000000 1.400095
v 1.001026 -0.300000 1.400095
v 0.952980 0.000000 1.794487
v 0.907685 0.000000 1.777513
v 0.867789 0.000000 1.750161
v 0.835627 0.000000 1.714031
v 0.813080 0.000000 1.671235
v 0.801467 0.000000 1.624279
v 0.801467 0.000000 1.575907
v 0.813080 0.000000 1.528950
v 0.835627 0.000000 1.486155
v 0.867789 0.000000 1.450024
v 0.907685 0.000000 1.422672
v 0.952980 0.000000 1.405698
v 0.952980 -0.300000 1.405698
v 0.907685 -0.300000 1.422672
v 0.867789 -0.300000 1.450024
v 0.835627 -0.300000 1.486155
v 0.813080 -0.300000 1.528950
v 0.801467 -0.300000 1.575907
v 0.801467 -0.300000 1.624279
v 0.813080 -0.300000 1.671235
v 0.835627 -0.300000 1.714031
v 0.867789 -0.300000 1.750161
v 0.907685 -0.300000 1.777513
v 0.952980 -0.300000 1.794487
vt 0.030000 0.041831 0.000000
vt 0.000000 0.041831 0.000000
vt 0.030000 0.034860 0.000000
vt -0.000000 0.034860 0.000000
vt 0.030000 0.027888 0.000000
vt -0.000000 0.027888 0.000000
vt 0.030000 0.020916 0.000000
vt -0.000000 0.020916 0.000000
vt 0.030000 0.013944 0.000000
vt 0.000000 0.013944 0.000000
vt 0.030000 0.006972 0.000000
vt 0.000000 0.006972 0.000000
vt 0.030000 0.000000 0.000000
vt -0.000000 0.000000 0.000000
vt -0.006199 -0.020000 0.000000
vt 0.000921 0.000000 0.000000
vt -0.006199 0.020000 0.000000
vt 0.001519 0.006938 0.000000
vt 0.003296 0.013670 0.000000
vt 0.006199 -0.020000 0.000000
vt 0.003296 -0.013670 0.000000
vt 0.001519 -0.006938 0.000000
vt 0.006199 0.020000 0.000000
vt 0.024795 0.000000 0.000000
vt 0.024795 0.030000 0.000000
vt 0.012397 -0.000000 0.000000
vt 0.000000 0.030000 0.000000
vt -0.000000 -0.030000 0.000000
vt 0.012397 -0.030000 0.000000
vt 0.039999 0.030000 0.000000
vt 0.000000 0.030000 0.000000
vt 0.039999 -0.030000 0.000000
vt 0.000000 -0.030000 0.000000
vt 0.000000 0.000000 0.000000
vt 0.012397 0.000000 0.000000
vt 0.000000 0.030000 0.000000
vt 0.024795 0.030000 0.000000
vt 0.024795 -0.030000 0.000000
vt 0.012397 -0.030000 0.000000
vt -0.030000 0.000000 0.000000
vt -0.000000 0.000000 0.000000
vt -0.030000 0.004849 0.000000
vt -0.000000 0.004849 0.000000
vt -0.030000 0.009698 0.000000
vt -0.000000 0.009698 0.000000
vt -0.030000 0.014547 0.000000
vt -0.000000 0.014547 0.000000
vt -0.030000 0.019396 0.000000
vt -0.000000 0.019396 0.000000
vt -0.030000 0.024245 0.000000
vt -0.000000 0.024245 0.000000
vt -0.030000 0.029094 0.000000
vt -0.000000 0.029094 0.000000
vt -0.030000 0.033943 0.000000
vt 0.000000 0.033943 0.000000
vt -0.030000 0.038792 0.000000
vt 0.000000 0.038792 0.000000
vt -0.030000 0.043641 0.000000
vt 0.000000 0.043641 0.000000
vt -0.030000 0.048490 0.000000
vt 0.000000 0.048490 0.000000
vt -0.030000 0.053339 0.000000
vt 0.000000 0.053339 0.000000
vt -0.030000 0.058188 0.000000
vt -0.000000 0.058188 0.000000
vt -0.030000 0.063037 0.000000
vt -0.000000 0.063037 0.000000
vt -0.007151 0.019439 0.000000
vt -0.011680 0.017742 0.000000
vt -0.002346 0.020000 0.000000
vt -0.015670 0.015007 0.000000
vt -0.018886 0.011394 0.000000
vt -0.021141 0.007114 0.000000
vt -0.022302 0.002419 0.000000
vt -0.022302 -0.002419 0.000000
vt -0.021141 -0.007114 0.000000
vt -0.018886 -0.011394 0.000000
vt -0.015670 -0.015007 0.000000
vt -0.011680 -0.017742 0.000000
vt -0.007151 -0.019439 0.000000
vt -0.002346 -0.020000 0.000000
vt 0.022449 -0.020000 0.000000
vt 0.022449 0.020000 0.000000
vt -0.010051 0.020000 0.000000
vt -0.012954 0.013670 0.000000
vt 0.002346 0.020000 0.000000
vt -0.014731 0.006938 0.000000
vt -0.015329 0.000000 0.000000
vt -0.014731 -0.006938 0.000000
vt 0.002346 -0.020000 0.000000
vt 0.007151 -0.019439 0.000000
vt 0.011680 -0.017742 0.000000
vt -0.012954 -0.013670 0.000000
vt -0.010051 -0.020000 0.000000
vt 0.015670 -0.015007 0.000000
vt 0.018886 -0.011394 0.000000
vt 0.021141 -0.007114 0.000000
vt 0.022302 -0.002419 0.000000
vt 0.022302 0.002419 0.000000
vt 0.021141 0.007114 0.000000
vt 0.018886 0.011394 0.000000
vt 0.015670 0.015007 0.000000
vt 0.011680 0.017742 0.000000
vt 0.007151 0.019439 0.000000
vn -0.086978 0.000000 0.049344
vn -0.086978 0.000000 0.049344
vn -0.094141 0.000000 0.033728
vn -0.094141 0.000000 0.033728
vn -0.098524 0.000000 0.017116
vn -0.098524 0.000000 0.017116
vn -0.100000 0.000000 -0.000000
vn -0.100000 0.000000 -0.000000
vn -0.098524 0.000000 -0.017116
vn -0.098524 0.000000 -0.017116
vn -0.094141 0.000000 -0.033728
vn -0.094141 0.000000 -0.033728
vn -0.086978 0.000000 -0.049344
vn -0.086978 0.000000 -0.049344
vn 0.000000 0.100000 0.000000
vn 0.000000 0.100000 0.000000
vn 0.000000 0.100000 0.000000
vn 0.000000 0.100000 0.000000
vn 0.000000 0.100000 0.000000
vn 0.000000 0.100000 0.000000
vn 0.000000 0.100000 0.000000
vn 0.000000 0.100000 0.000000
vn 0.000000 0.100000 0.000000
vn 0.000000 0.000000 0.100000
vn 0.000000 0.000000 0.100000
vn 0.000000 0.000000 0.100000
vn 0.000000 0.000000 0.100000
vn 0.000000 0.000000 0.100000
vn 0.000000 0.000000 0.100000
vn 0.100000 0.000000 -0.000000
vn 0.100000 0.000000 -0.000000
vn 0.100000 0.000000 -0.000000
vn 0.100000 0.000000 -0.000000
vn 0.000000 0.000000 -0.100000
vn 0.000000 0.000000 -0.100000
vn 0.000000 0.000000 -0.100000
vn 0.000000 0.000000 -0.100000
vn 0.000000 0.000000 -0.100000
vn 0.000000 0.000000 -0.100000
vn 0.000514 0.000000 0.099999
vn 0.000514 0.000000 0.099999
vn -0.023509 0.000000 0.097197
vn -0.023509 0.000000 0.097197
vn -0.046157 0.000000 0.088710
vn -0.046157 0.000000 0.088710
vn -0.066105 0.000000 0.075034
vn -0.066105 0.000000 0.075034
vn -0.082186 0.000000 0.056969
vn -0.082186 0.000000 0.056969
vn -0.093460 0.000000 0.035571
vn -0.093460 0.000000 0.035571
vn -0.099266 0.000000 0.012093
vn -0.099266 0.000000 0.012093
vn -0.099266 0.000000 -0.012093
vn -0.099266 0.000000 -0.012093
vn -0.093460 0.000000 -0.035571
vn -0.093460 0.000000 -0.035571
vn -0.082186 0.000000 -0.056969
vn -0.082186 0.000000 -0.056969
vn -0.066105 0.000000 -0.075034
vn -0.066105 0.000000 -0.075034
vn -0.046157 0.000000 -0.088710
vn -0.046157 0.000000 -0.088710
vn -0.023509 0.000000 -0.097197
vn -0.023509 0.000000 -0.097197
vn 0.000514 0.000000 -0.099999
vn 0.000514 0.000000 -0.099999
vn 0.000000 -0.100000 0.000000
vn 0.000000 -0.100000 0.000000
vn 0.000000 -0.100000 0.000000
vn 0.000000 -0.100000 0.000000
vn 0.000000 -0.100000 0.000000
vn 0.000000 -0.100000 0.000000
vn 0.000000 -0.100000 0.000000
vn 0.000000 -0.100000 0.000000
vn 0.000000 -0.100000 0.000000
vn 0.000000 -0.100000 0.000000
vn 0.000000 -0.100000 0.000000
vn 0.000000 -0.100000 0.000000
vn 0.000000 -0.100000 0.000000
vn 0.000000 -0.100000 0.000000
vn 0.000000 -0.100000 0.000000
vn 0.000000 -0.100000 0.000000
vn -0.000000 0.100000 -0.000000
vn -0.000000 0.100000 -0.000000
vn -0.000000 0.100000 -0.000000
vn -0.000000 0.100000 -0.000000
vn -0.000000 0.100000 -0.000000
vn -0.000000 0.100000 -0.000000
vn -0.000000 0.100000 -0.000000
vn -0.000000 0.100000 -0.000000
vn -0.000000 0.100000 -0.000000
vn -0.000000 0.100000 -0.000000
vn -0.000000 0.100000 -0.000000
vn -0.000000 0.100000 -0.000000
vn -0.000000 0.100000 -0.000000
vn -0.000000 0.100000 -0.000000
vn -0.000000 0.100000 -0.000000
vn -0.000000 0.100000 -0.000000
vn -0.000000 0.100000 -0.000000
vn -0.000000 0.100000 -0.000000
vn -0.000000 0.100000 -0.000000
vn -0.000000 0.100000 -0.000000
vn -0.000000 0.100000 -0.000000
usemtl Steel_-_Satin
f 14/1/1 1/2/2 13/3/3
f 13/3/3 1/2/2 2/4/4
f 13/3/3 2/4/4 12/5/5
f 12/5/5 2/4/4 3/6/6
f 12/5/5 3/6/6 11/7/7
f 11/7/7 3/6/6 4/8/8
f 11/7/7 4/8/8 10/9/9
f 10/9/9 4/8/8 5/10/10
f 10/9/9 5/10/10 9/11/11
f 9/11/11 5/10/10 6/12/12
f 9/11/11 6/12/12 8/13/13
f 8/13/13 6/12/12 7/14/14
f 16/15/15 11/16/16 15/17/17
f 15/17/17 11/16/16 10/18/18
f 15/17/17 10/18/18 9/19/19
f 14/20/20 13/21/21 16/15/15
f 16/15/15 13/21/21 12/22/22
f 16/15/15 12/22/22 11/16/16
f 9/19/19 8/23/23 15/17/17
f 17/24/24 18/25/25 7/26/26
f 7/26/26 18/25/25 19/27/27
f 7/26/26 19/27/27 15/28/28
f 15/28/28 8/29/29 7/26/26
f 19/30/30 20/31/31 15/32/32
f 15/32/32 20/31/31 16/33/33
f 21/34/34 1/35/35 22/36/36
f 22/36/36 1/35/35 20/37/37
f 20/37/37 1/35/35 16/38/38
f 16/38/38 1/35/35 14/39/39
f 18/40/40 17/41/41 46/42/42
f 46/42/42 17/41/41 23/43/43
f 46/42/42 23/43/43 45/44/44
f 45/44/44 23/43/43 24/45/45
f 45/44/44 24/45/45 44/46/46
f 44/46/46 24/45/45 25/47/47
f 44/46/46 25/47/47 43/48/48
f 43/48/48 25/47/47 26/49/49
f 43/48/48 26/49/49 42/50/50
f 42/50/50 26/49/49 27/51/51
f 42/50/50 27/51/51 41/52/52
f 41/52/52 27/51/51 28/53/53
f 41/52/52 28/53/53 40/54/54
f 40/54/54 28/53/53 29/55/55
f 40/54/54 29/55/55 39/56/56
f 39/56/56 29/55/55 30/57/57
f 39/56/56 30/57/57 38/58/58
f 38/58/58 30/57/57 31/59/59
f 38/58/58 31/59/59 37/60/60
f 37/60/60 31/59/59 32/61/61
f 37/60/60 32/61/61 36/62/62
f 36/62/62 32/61/61 33/63/63
f 36/62/62 33/63/63 35/64/64
f 35/64/64 33/63/63 34/65/65
f 35/64/64 34/65/65 22/66/66
f 22/66/66 34/65/65 21/67/67
f 46/68/68 45/69/69 18/70/70
f 18/70/70 45/69/69 44/71/71
f 18/70/70 44/71/71 43/72/72
f 43/72/72 42/73/73 18/70/70
f 18/70/70 42/73/73 41/74/74
f 18/70/70 41/74/74 40/75/75
f 40/75/75 39/76/76 18/70/70
f 18/70/70 39/76/76 38/77/77
f 18/70/70 38/77/77 37/78/78
f 37/78/78 36/79/79 18/70/70
f 18/70/70 36/79/79 35/80/80
f 18/70/70 35/80/80 22/81/81
f 22/81/81 20/82/82 18/70/70
f 18/70/70 20/82/82 19/83/83
f 7/84/84 6/85/85 17/86/86
f 17/86/86 6/85/85 5/87/87
f 17/86/86 5/87/87 4/88/88
f 3/89/89 21/90/90 4/88/88
f 4/88/88 21/90/90 34/91/91
f 4/88/88 34/91/91 33/92/92
f 3/89/89 2/93/93 21/90/90
f 21/90/90 2/93/93 1/94/94
f 33/92/92 32/95/95 4/88/88
f 4/88/88 32/95/95 31/96/96
f 4/88/88 31/96/96 30/97/97
f 30/97/97 29/98/98 4/88/88
f 4/88/88 29/98/98 28/99/99
f 4/88/88 28/99/99 27/100/100
f 27/100/100 26/101/101 4/88/88
f 4/88/88 26/101/101 25/102/102
f 4/88/88 25/102/102 24/103/103
f 24/103/103 23/104/104 4/88/88
f 4/88/88 23/104/104 17/86/86
# 46 vertices
# 104 texture params
# 104 normals
# 88 facets

# 1 groups
